<?xml version="1.0" encoding="utf-8"?>
<?xml-stylesheet type="text/xsl" href="rss1.xsl"?>
<rss version="2.0" xmlns:atom="http://www.w3.org/2005/Atom" xmlns:content="http://purl.org/rss/1.0/modules/content/" xmlns:dc="http://purl.org/dc/elements/1.1/" xmlns:media="http://search.yahoo.com/mrss/">
<channel>
 <title>Getty</title>
 <link>http://www.gettyimg.com/</link>
 <atom:link href="http://www.gettyimg.com/" rel="self" type="application/rss+xml" />

 
                <item>
                <title><![CDATA[【Cinema Center】SERIES - Warped! - Season 1 - 1080p Amazon WEB-DL DDP5.1 H.264-LAZY]]></title>
                <link><![CDATA[https://sharemania.us/threads/warped-season-1-1080p-amazon-web-dl-ddp5-1-h-264-lazy.234796/]]></link>
                <description><![CDATA[<article>
<blockquote class="messageText SelectQuoteContainer ugc baseHtml">
Warped:<img src="http:////imgbin.broadcasthe.net/i/TJfcAXKGAWqLUE6_XtUkJ.png" class="bbCodeImage LbImage" alt="[​IMG]" data-url="http:////imgbin.broadcasthe.net/i/TJfcAXKGAWqLUE6_XtUkJ.png" style=""> <br>
<br>
<div class="bbCodeBlock bbCodeQuote">
<aside>
<blockquote class="quoteContainer"><div class="quote"><i><b>Synopsis:</b></i><br>
Warped! follows Milo, the beloved head geek and manager at a popular comic book store whose microcosm is disrupted when his boss hires the loud and excitable, Ruby. Despite their differences, the two form an unlikely alliance when they team up to create the next great graphic novel with friends, Hurley, the pizza worker next door, and Darby, who dreams of opening her own fashion line.</div><div class="quoteExpand">Click to expand...</div></blockquote>
</aside>
</div>
<div class="ToggleTriggerAnchor bbCodeSpoilerContainer">
<button type="button" class="button bbCodeSpoilerButton ToggleTrigger Tooltip JsOnly" data-target="> .SpoilerTarget"><span>Spoiler: <span class="SpoilerTitle">MediaInfo</span></span></button>
<div class="SpoilerTarget bbCodeSpoilerText">General<br>
Unique ID : 171950416469803566682278499621532571610 (0x815C721308305533CA1FCC6D54AF97DA)<br>
Complete name : Warped.S01E01.Pilot.1080p.AMZN.WEB-DL.DDP5.1.H.264-LAZY.mkv<br>
Format : Matroska<br>
Format version : Version 4<br>
File size : 1.53 GiB<br>
Duration : 22 min 32 s<br>
Overall bit rate : 9 725 kb/s<br>
Encoded date : UTC 2023-12-27 16:25:04<br>
Writing application : mkvmerge v63.0.0 ('Everything') 32-bit<br>
Writing library : libebml v1.4.2 + libmatroska v1.6.4<br>
<br>
Video<br>
ID : 1<br>
Format : AVC<br>
Format/Info : Advanced Video Codec<br>
Format profile : High@L4<br>
Format settings : CABAC / 4 Ref Frames<br>
Format settings, CABAC : Yes<br>
Format settings, Reference frames : 4 frames<br>
Codec ID : V_MPEG4/ISO/AVC<br>
Duration : 22 min 32 s<br>
Bit rate mode : Constant<br>
Bit rate : 9 082 kb/s<br>
Nominal bit rate : 10 000 kb/s<br>
Width : 1 920 pixels<br>
Height : 1 080 pixels<br>
Display aspect ratio : 16:9<br>
Frame rate mode : Constant<br>
Frame rate : 23.976 (24000/1001) FPS<br>
Color space : YUV<br>
Chroma subsampling : 4:2:0<br>
Bit depth : 8 bits<br>
Scan type : Progressive<br>
Bits/(Pixel*Frame) : 0.183<br>
Stream size : 1.43 GiB (93%)<br>
Default : Yes<br>
Forced : No<br>
Color range : Limited<br>
Color primaries : BT.709<br>
Transfer characteristics : BT.709<br>
Matrix coefficients : BT.709<br>
<br>
Audio<br>
ID : 2<br>
Format : E-AC-3<br>
Format/Info : Enhanced AC-3<br>
Commercial name : Dolby Digital Plus<br>
Codec ID : A_EAC3<br>
Duration : 22 min 32 s<br>
Bit rate mode : Constant<br>
Bit rate : 640 kb/s<br>
Channel(s) : 6 channels<br>
Channel layout : L R C LFE Ls Rs<br>
Sampling rate : 48.0 kHz<br>
Frame rate : 31.250 FPS (1536 SPF)<br>
Compression mode : Lossy<br>
Stream size : 103 MiB (7%)<br>
Language : English<br>
Service kind : Complete Main<br>
Default : Yes<br>
Forced : No<br>
<br>
Text<br>
ID : 3<br>
Format : UTF-8<br>
Codec ID : S_TEXT/UTF8<br>
Codec ID/Info : UTF-8 Plain Text<br>
Duration : 21 min 50 s<br>
Bit rate : 102 b/s<br>
Count of elements : 540<br>
Stream size : 16.5 KiB (0%)<br>
Title : SDH<br>
Language : English<br>
Default : No<br>
Forced : No</div>
</div><br>
Screenshots:<br>
<img src="https://i.imgur.com/4sZ0gQR.jpg" class="bbCodeImage LbImage" alt="[​IMG]" data-url="https://i.imgur.com/4sZ0gQR.jpg" style=""> <br>
<br>
<div class="bbCodeBlock bbCodeVfcHH HiddenContent">
<div class="attribution type">Hidden Content:</div>
<blockquote>You must either reply or click 'Like' to see the hidden information contained here.</blockquote>
</div>
<div class="messageTextEndMarker">&nbsp;</div>
</blockquote>
</article>]]></description>
                <author><![CDATA[LazyRips]]></author>
                </item>

                
                <item>
                <title><![CDATA[【Albums (lossless)】FLAC - ROSALÍA - EL MAL QUERER (2018)|Amazon Music 24 bit/48.0 kHz]]></title>
                <link><![CDATA[https://sharemania.us/threads/rosal%C3%8Da-el-mal-querer-2018-amazon-music-24-bit-48-0-khz.234797/]]></link>
                <description><![CDATA[<article>
<blockquote class="messageText SelectQuoteContainer ugc baseHtml">
<div style="text-align: center"><a href="https://imgbox.com/0CLT3H44" target="_blank" class="externalLink" rel="nofollow"><img src="https://thumbs2.imgbox.com/78/8b/0CLT3H44_t.jpg" class="bbCodeImage LbImage" alt="[​IMG]" data-url="https://thumbs2.imgbox.com/78/8b/0CLT3H44_t.jpg"></a><br>
Album Artist(s): <b>ROSALÍA</b><br>
Title: <b>EL MAL QUERER</b><br>
Year Of Release: <b>2018</b><br>
Genre(s): <b>Flamenco Pop, Flamenco nuevo, Art Pop, Alternative R&amp;B, Bulería</b>​</div>
<div class="ToggleTriggerAnchor bbCodeSpoilerContainer">
<button type="button" class="button bbCodeSpoilerButton ToggleTrigger Tooltip JsOnly" data-target="> .SpoilerTarget"><span>Spoiler: <span class="SpoilerTitle">Tracklist</span></span></button>
<div class="SpoilerTarget bbCodeSpoilerText"><ol>
<li>Malamente (Cap.1: Augurio)</li>
<li>Que No Salga La Luna (Cap.2: Boda)</li>
<li>Pienso En Tu Mirá (Cap.3: Celos)</li>
<li>De Aquí No Sales (Cap.4: Disputa)</li>
<li>Reniego (Cap.5: Lamento)</li>
<li>Preso (Cap.6: Clausura)</li>
<li>Bagdad (Cap.7: Liturgia)</li>
<li>Di Mi Nombre (Cap.8: Éxtasis)</li>
<li>Nana (Cap.9: Concepción)</li>
<li>Maldición (Cap.10: Cordura)</li>
<li>A Ningún Hombre (Cap.11: Poder)</li>
</ol></div>
</div><br>
<b>USE <a href="https://www.base64decode.org/" target="_blank" class="externalLink" rel="nofollow">https://www.base64decode.org/</a> or <a href="https://toolbox.googleapps.com/apps/encode_decode/" target="_blank" class="externalLink" rel="nofollow">https://toolbox.googleapps.com/apps/encode_decode/</a> TO DECODE THE LINK AND YOU SHOULD GET A ONEDRIVE LINK</b><br>
<br>
<div class="bbCodeBlock bbCodeVfcHH HiddenContent">
<div class="attribution type">Hidden Content:</div>
<blockquote>You must reply before you can see the hidden data contained here.</blockquote>
</div>
<div class="messageTextEndMarker">&nbsp;</div>
</blockquote>
</article>]]></description>
                <author><![CDATA[hgtvelesion]]></author>
                </item>

                </channel></rss>